<svg width="24" height="24" viewBox="0 0 24 24" fill="none" xmlns="http://www.w3.org/2000/svg">
<g clip-path="url(#clip0_1976_7455)">
<path fill-rule="evenodd" clip-rule="evenodd" d="M18.0095 9.00273C18.0095 9.0336 18.0098 9.06448 18.01 9.09535V9.09546C18.0104 9.15717 18.0108 9.21889 18.0095 9.28061C18.0063 9.39832 17.9947 9.51465 17.983 9.63195L17.9768 9.6955C17.9575 9.88268 17.9247 10.0679 17.888 10.2513C17.8475 10.4519 17.7935 10.6468 17.7298 10.8398C17.5832 11.2933 17.3845 11.7236 17.1357 12.1308C17.0142 12.3276 16.883 12.5187 16.7402 12.7001C16.5435 12.9509 16.3313 13.1863 16.0959 13.4025C15.8374 13.6418 15.5596 13.8579 15.2645 14.0489C14.9366 14.2593 14.5932 14.4387 14.2305 14.5835C13.9894 14.6799 13.7444 14.761 13.4936 14.8247C13.2371 14.8903 12.9766 14.9347 12.7124 14.9694C12.3613 15.0157 12.0102 15.0119 11.6591 15.0003C11.503 14.995 11.347 14.9738 11.1909 14.9526L11.144 14.9462C10.9183 14.9154 10.6946 14.8691 10.4747 14.8092C10.2007 14.7359 9.9326 14.6433 9.67218 14.5314C9.31337 14.377 8.97386 14.1917 8.65171 13.9737C8.25046 13.7016 7.89166 13.3851 7.56565 13.0281C7.27243 12.7058 7.0178 12.3527 6.80174 11.9745C6.57604 11.5828 6.39857 11.1698 6.2674 10.7375C6.1883 10.4751 6.12657 10.2069 6.08606 9.93671C6.07267 9.84739 6.06272 9.75807 6.05267 9.66786L6.04362 9.58743C6.02626 9.41955 6.01855 9.24973 6.01276 9.07992C6.00943 8.97178 6.01471 8.86221 6.01994 8.75368L6.02241 8.70169C6.02819 8.58784 6.03784 8.47399 6.04748 8.36013C6.05906 8.24628 6.07256 8.13436 6.09185 8.0205C6.16516 7.59018 6.28476 7.17336 6.4468 6.76812C6.55097 6.50761 6.67635 6.25674 6.81718 6.0136C6.98307 5.72993 7.16826 5.4617 7.3766 5.20891C7.55022 4.99664 7.73733 4.79402 7.93989 4.60877C8.33148 4.25177 8.7578 3.94495 9.22849 3.69794C9.56994 3.51848 9.92681 3.37375 10.2953 3.2599C10.5422 3.18464 10.7949 3.12675 11.0514 3.08429C11.2328 3.05535 11.418 3.03605 11.6012 3.02061C11.7885 3.00473 11.9759 3.00715 12.1643 3.00958C12.2048 3.0101 12.2454 3.01062 12.286 3.01097C12.3551 3.01097 12.4241 3.01914 12.4931 3.02731C12.5128 3.02964 12.5325 3.03198 12.5523 3.03412C12.5767 3.03669 12.6011 3.03948 12.6256 3.04227C12.6744 3.04784 12.7233 3.05342 12.7722 3.05728C12.9689 3.07658 13.1618 3.1171 13.3547 3.15955C13.5573 3.20394 13.7541 3.26183 13.9489 3.32937C14.2035 3.41621 14.4504 3.52041 14.6896 3.64005C14.9713 3.78092 15.2394 3.94495 15.496 4.12827C15.6484 4.23826 15.7969 4.35405 15.9377 4.47755C16.1249 4.63964 16.3004 4.81332 16.4663 4.99471C16.665 5.21084 16.8425 5.44433 17.0064 5.68748C17.2004 5.97724 17.3688 6.28328 17.5099 6.60216C17.6392 6.89548 17.7453 7.19845 17.8244 7.50913C17.8803 7.72333 17.9208 7.94139 17.9536 8.16137C17.996 8.44118 18.0192 8.72099 18.0095 9.00273ZM16.9982 8.73839C16.9905 8.58971 16.9716 8.44474 16.9524 8.29635L16.95 8.27785C16.9238 8.07874 16.8796 7.88568 16.8273 7.69462C16.7891 7.54781 16.7408 7.40502 16.6885 7.26424C16.59 7.00078 16.4693 6.74939 16.3306 6.50806C16.224 6.32304 16.1054 6.14807 15.9767 5.97914C15.7957 5.73981 15.5926 5.5206 15.3714 5.31748C15.1522 5.11838 14.919 4.93738 14.6676 4.78051C14.3318 4.56733 13.9758 4.39638 13.5998 4.26968C13.3686 4.19125 13.1333 4.13092 12.892 4.08868C12.6889 4.05248 12.4858 4.02433 12.2807 4.01628C12.2621 4.01582 12.2435 4.01568 12.225 4.01553C12.1631 4.01506 12.1012 4.01458 12.0394 4.0022C12.0182 3.99797 11.9951 4.00067 11.9721 4.00335C11.9622 4.00449 11.9524 4.00563 11.9428 4.00623C11.934 4.00703 11.9251 4.00848 11.9163 4.00993C11.903 4.0121 11.8897 4.01427 11.8765 4.01427C11.7518 4.01427 11.6271 4.02031 11.5004 4.03438C11.3054 4.05651 11.1123 4.08466 10.9213 4.12891C10.6156 4.19728 10.32 4.29382 10.0345 4.41851C9.74694 4.5432 9.47346 4.69202 9.21607 4.86699C8.92046 5.0681 8.64698 5.29535 8.40165 5.5568C8.30513 5.65937 8.21062 5.76395 8.12013 5.87456C7.91703 6.12595 7.74007 6.39343 7.58925 6.67699C7.45855 6.92436 7.34393 7.17977 7.25947 7.44725C7.17903 7.69864 7.11267 7.95204 7.07447 8.2155C7.0443 8.41661 7.01816 8.61571 7.01615 8.81884C7.01615 8.83493 7.01615 8.85101 7.01213 8.8671C6.99604 8.94353 6.99805 9.02196 7.0061 9.09838C7.01245 9.16008 7.01511 9.22219 7.01779 9.28453C7.02105 9.36036 7.02432 9.43651 7.03425 9.51267C7.03961 9.55141 7.04444 9.59014 7.04927 9.62882L7.04927 9.62883C7.06073 9.72069 7.07216 9.81226 7.09055 9.90283C7.12675 10.0899 7.173 10.2729 7.22729 10.4539C7.29365 10.6751 7.3761 10.8923 7.47463 11.1015C7.60333 11.375 7.75415 11.6364 7.93111 11.8838C8.08594 12.101 8.25888 12.3061 8.44388 12.4972C8.65302 12.7124 8.88226 12.9034 9.12558 13.0784C9.34275 13.2353 9.574 13.368 9.81129 13.4887C9.99428 13.5812 10.1853 13.6576 10.3804 13.726C10.5412 13.7823 10.7041 13.8285 10.871 13.8667C11.058 13.909 11.2471 13.9472 11.4401 13.9653C11.613 13.9834 11.786 13.9975 11.9589 13.9995C12.1482 14.0032 12.3376 13.9863 12.5269 13.9695L12.5743 13.9653C12.7532 13.9472 12.9322 13.917 13.1071 13.8768C13.4912 13.7883 13.8592 13.6576 14.2111 13.4826C14.3639 13.4062 14.5107 13.3217 14.6555 13.2312C14.8948 13.0844 15.118 12.9155 15.3252 12.7285C15.4941 12.5756 15.6549 12.4127 15.8037 12.2398C15.9244 12.097 16.037 11.9481 16.1436 11.7953C16.2377 11.6589 16.3189 11.5152 16.4014 11.3694L16.4014 11.3694L16.413 11.3488C16.5478 11.1095 16.6544 10.8581 16.7408 10.5987C16.8554 10.2568 16.9359 9.90685 16.9741 9.54686C16.9902 9.36385 17.0022 9.18084 16.9982 8.99783C16.9982 8.96906 16.9987 8.9403 16.9991 8.91153L16.9991 8.91135C17 8.8537 17.0009 8.79604 16.9982 8.73839ZM12.5643 17.1253C12.4979 17.1227 12.4315 17.1202 12.3651 17.1145C12.2778 17.1074 12.1896 17.1092 12.1017 17.1109C12.0627 17.1117 12.0238 17.1124 11.9851 17.1124C11.8225 17.1084 11.66 17.1084 11.4954 17.1226C11.4375 17.1277 11.379 17.1302 11.3206 17.1328C11.2622 17.1353 11.2038 17.1378 11.1458 17.1429C11.1141 17.1458 11.0824 17.1485 11.0507 17.1513C10.9239 17.1623 10.7971 17.1734 10.6703 17.1897C10.6262 17.1956 10.582 17.2012 10.5376 17.2068C10.4307 17.2204 10.3234 17.234 10.2172 17.2527C10.02 17.2872 9.82292 17.3258 9.6258 17.3685C9.38804 17.4193 9.15231 17.4823 8.91861 17.5514C8.68898 17.6205 8.46138 17.6957 8.23581 17.781C7.93912 17.8928 7.64446 18.0147 7.35793 18.1529C6.98198 18.3317 6.61823 18.5329 6.26667 18.7564C5.73221 19.0958 5.22824 19.4799 4.76085 19.9107L4.73265 19.9366C4.54294 20.1107 4.35411 20.284 4.18372 20.4777C4.10447 20.5671 4.04757 20.6687 4.02115 20.7845C4.01021 20.8283 4.01129 20.8732 4.01237 20.9184C4.01269 20.932 4.01302 20.9457 4.01302 20.9593C4.01505 21.1401 4.09431 21.2865 4.2264 21.4023C4.3849 21.5405 4.57796 21.5669 4.77711 21.5303C4.92139 21.5039 5.03722 21.4185 5.1368 21.3108C5.14241 21.3044 5.14793 21.2979 5.15342 21.2915C5.17376 21.2676 5.19364 21.2443 5.21605 21.2235C5.31156 21.13 5.40707 21.0385 5.50461 20.9471C5.52846 20.925 5.5522 20.9029 5.57593 20.8808C5.6594 20.8029 5.74273 20.7252 5.82976 20.6524C6.02281 20.4919 6.21586 20.3334 6.41908 20.1871C6.81535 19.8985 7.23193 19.6384 7.66885 19.4149C7.92083 19.2868 8.17688 19.171 8.43903 19.0633C8.64834 18.9759 8.86375 18.8987 9.07915 18.8296C9.33723 18.7463 9.60141 18.6751 9.86762 18.6162C10.0546 18.5756 10.2415 18.539 10.4305 18.5085C10.5748 18.4862 10.7211 18.4658 10.8654 18.4496C10.893 18.4465 10.9205 18.4433 10.9479 18.4401C11.0662 18.4263 11.1836 18.4126 11.3023 18.411C11.3125 18.41 11.3221 18.4094 11.3318 18.4089C11.3414 18.4084 11.3511 18.4079 11.3612 18.4069C11.5299 18.3906 11.6986 18.3846 11.8673 18.3805C12.0522 18.3764 12.2371 18.3805 12.422 18.3947C12.4772 18.3987 12.5321 18.4017 12.5869 18.4046C12.6976 18.4105 12.8077 18.4163 12.9179 18.4313C12.9614 18.4369 13.0058 18.4403 13.0502 18.4437C13.1033 18.4479 13.1565 18.452 13.2085 18.4597C13.2957 18.4722 13.3822 18.487 13.4683 18.5017C13.5227 18.5109 13.5769 18.5202 13.6312 18.5288C13.9461 18.5776 14.255 18.6487 14.5619 18.7361C15.0089 18.8621 15.4459 19.0206 15.8685 19.2137C16.2303 19.3803 16.5839 19.5673 16.9232 19.7806C17.1224 19.9046 17.3154 20.0347 17.5044 20.1728C17.7259 20.3334 17.9373 20.5041 18.1425 20.6849C18.1843 20.7222 18.2257 20.7607 18.2672 20.7993C18.3186 20.847 18.3701 20.8949 18.4229 20.941C18.5408 21.0467 18.6526 21.1605 18.7603 21.2783C18.805 21.3271 18.8497 21.3738 18.9025 21.4104C19.0712 21.5262 19.2561 21.5669 19.4573 21.5201C19.5975 21.4876 19.7052 21.4084 19.7987 21.3047C19.9491 21.1381 19.9857 20.939 19.9369 20.7236C19.9125 20.6158 19.8515 20.5285 19.7743 20.4512C19.7389 20.4158 19.7036 20.3803 19.6682 20.3447C19.4821 20.1576 19.295 19.9693 19.0936 19.7969C18.9615 19.6811 18.8294 19.5652 18.6912 19.4575C18.5266 19.3275 18.3559 19.2015 18.1852 19.0775C17.7706 18.7808 17.3337 18.5166 16.8785 18.285C16.6428 18.163 16.401 18.0513 16.1551 17.9476C15.6877 17.7505 15.2101 17.588 14.7183 17.4599C14.4887 17.399 14.2591 17.3441 14.0254 17.3035C13.9923 17.2974 13.9593 17.2912 13.9264 17.285C13.8382 17.2683 13.7505 17.2517 13.6616 17.2384C13.6304 17.2329 13.5988 17.2291 13.5669 17.2252C13.5283 17.2205 13.4893 17.2157 13.4503 17.2079C13.3527 17.1897 13.2511 17.1754 13.1516 17.1693C13.0317 17.1612 12.9118 17.151 12.7919 17.1389C12.716 17.1313 12.6401 17.1283 12.5643 17.1253Z" fill="#020814"/>
<path d="M18.01 9.09535H18.36L18.36 9.09292L18.01 9.09535ZM18.0095 9.00273L17.6595 8.99075V9.00273H18.0095ZM18.01 9.09546L17.66 9.09546L17.66 9.09789L18.01 9.09546ZM18.0095 9.28061L18.3594 9.29032L18.3595 9.2879L18.0095 9.28061ZM17.983 9.63195L17.6348 9.59729L17.6347 9.59755L17.983 9.63195ZM17.9768 9.6955L18.3249 9.73138L18.3251 9.72989L17.9768 9.6955ZM17.888 10.2513L18.2311 10.3205L18.2312 10.3199L17.888 10.2513ZM17.7298 10.8398L17.3974 10.7302L17.3968 10.7322L17.7298 10.8398ZM17.1357 12.1308L17.4335 12.3147L17.4343 12.3133L17.1357 12.1308ZM16.7402 12.7001L16.4652 12.4836L16.4648 12.4841L16.7402 12.7001ZM16.0959 13.4025L15.8592 13.1447L15.8582 13.1456L16.0959 13.4025ZM15.2645 14.0489L15.4535 14.3435L15.4547 14.3428L15.2645 14.0489ZM14.2305 14.5835L14.1008 14.2584L14.1005 14.2585L14.2305 14.5835ZM13.4936 14.8247L13.4075 14.4854L13.4069 14.4856L13.4936 14.8247ZM12.7124 14.9694L12.6668 14.6224L12.6666 14.6224L12.7124 14.9694ZM11.6591 15.0003L11.6473 15.3501L11.6476 15.3501L11.6591 15.0003ZM11.1909 14.9526L11.238 14.6058L11.2379 14.6058L11.1909 14.9526ZM11.144 14.9462L11.0966 15.293L11.097 15.2931L11.144 14.9462ZM10.4747 14.8092L10.5665 14.4715L10.5652 14.4711L10.4747 14.8092ZM9.67218 14.5314L9.53385 14.8529L9.53398 14.8529L9.67218 14.5314ZM8.65171 13.9737L8.45527 14.2634L8.45552 14.2635L8.65171 13.9737ZM7.56565 13.0281L7.30677 13.2637L7.3072 13.2641L7.56565 13.0281ZM6.80174 11.9745L7.10566 11.8009L7.10501 11.7998L6.80174 11.9745ZM6.2674 10.7375L5.93228 10.8385L5.93248 10.8392L6.2674 10.7375ZM6.08606 9.93671L5.73993 9.98861L5.73993 9.98861L6.08606 9.93671ZM6.05267 9.66786L6.40052 9.62911L6.40048 9.62873L6.05267 9.66786ZM6.04362 9.58743L5.69547 9.62344L5.69582 9.62656L6.04362 9.58743ZM6.01276 9.07992L5.66292 9.09068L5.66296 9.09184L6.01276 9.07992ZM6.01994 8.75368L6.36953 8.77051L6.36954 8.77028L6.01994 8.75368ZM6.02241 8.70169L5.67285 8.68393L5.6728 8.68509L6.02241 8.70169ZM6.04748 8.36013L5.69923 8.32473L5.69873 8.33059L6.04748 8.36013ZM6.09185 8.0205L5.74682 7.96173L5.74677 7.96204L6.09185 8.0205ZM6.4468 6.76812L6.77178 6.89807L6.77178 6.89807L6.4468 6.76812ZM6.81718 6.0136L6.51505 5.83691L6.51431 5.83819L6.81718 6.0136ZM7.3766 5.20891L7.6467 5.43151L7.64752 5.4305L7.3766 5.20891ZM7.93989 4.60877L7.70409 4.35012L7.70367 4.3505L7.93989 4.60877ZM9.22849 3.69794L9.39113 4.00786L9.39133 4.00776L9.22849 3.69794ZM10.2953 3.2599L10.1932 2.9251L10.1919 2.9255L10.2953 3.2599ZM11.0514 3.08429L10.9963 2.73866L10.9943 2.73899L11.0514 3.08429ZM11.6012 3.02061L11.6306 3.36938L11.6308 3.36936L11.6012 3.02061ZM12.1643 3.00958L12.1597 3.35955L12.1597 3.35955L12.1643 3.00958ZM12.286 3.01097L12.2831 3.36097H12.286V3.01097ZM12.4931 3.02731L12.4519 3.37488L12.4519 3.37488L12.4931 3.02731ZM12.5523 3.03412L12.5144 3.38207L12.5156 3.3822L12.5523 3.03412ZM12.6256 3.04227L12.6652 2.69452L12.6652 2.69452L12.6256 3.04227ZM12.7722 3.05728L12.8063 2.70889L12.7997 2.70836L12.7722 3.05728ZM13.3547 3.15955L13.2795 3.50137L13.2798 3.50144L13.3547 3.15955ZM13.9489 3.32937L13.8343 3.66007L13.8359 3.66063L13.9489 3.32937ZM14.6896 3.64005L14.5331 3.95308L14.5331 3.95308L14.6896 3.64005ZM15.496 4.12827L15.7008 3.84447L15.6995 3.8435L15.496 4.12827ZM15.9377 4.47755L15.707 4.74069L15.7086 4.74209L15.9377 4.47755ZM16.4663 4.99471L16.208 5.23092L16.2086 5.23159L16.4663 4.99471ZM17.0064 5.68748L17.2973 5.4928L17.2966 5.49179L17.0064 5.68748ZM17.5099 6.60216L17.8302 6.46103L17.83 6.46055L17.5099 6.60216ZM17.8244 7.50913L17.4852 7.59548L17.4857 7.59757L17.8244 7.50913ZM17.9536 8.16137L17.6074 8.21298L17.6076 8.21386L17.9536 8.16137ZM16.9524 8.29635L16.6053 8.34146L16.6053 8.34147L16.9524 8.29635ZM16.9982 8.73839L17.3478 8.72213L17.3477 8.72024L16.9982 8.73839ZM16.95 8.27785L17.297 8.23274L17.297 8.23228L16.95 8.27785ZM16.8273 7.69462L16.4885 7.78278L16.4897 7.787L16.8273 7.69462ZM16.6885 7.26424L17.0166 7.14239L17.0164 7.14163L16.6885 7.26424ZM16.3306 6.50806L16.634 6.33361L16.6339 6.33336L16.3306 6.50806ZM15.9767 5.97914L15.6975 6.19025L15.6983 6.19124L15.9767 5.97914ZM15.3714 5.31748L15.6081 5.05968L15.6067 5.0584L15.3714 5.31748ZM14.6676 4.78051L14.48 5.07601L14.4823 5.07743L14.6676 4.78051ZM13.5998 4.26968L13.4874 4.60114L13.4881 4.60136L13.5998 4.26968ZM12.892 4.08868L12.8306 4.43325L12.8316 4.43344L12.892 4.08868ZM12.2807 4.01628L12.2944 3.66652L12.2894 3.66639L12.2807 4.01628ZM12.225 4.01553L12.2277 3.66554L12.2277 3.66554L12.225 4.01553ZM12.0394 4.0022L12.108 3.659L12.108 3.659L12.0394 4.0022ZM11.9721 4.00335L11.9316 3.65569L11.9316 3.65569L11.9721 4.00335ZM11.9428 4.00623L11.921 3.65677L11.9111 3.65766L11.9428 4.00623ZM11.9163 4.00993L11.8598 3.66452L11.8598 3.66452L11.9163 4.00993ZM11.5004 4.03438L11.4618 3.68652L11.461 3.68661L11.5004 4.03438ZM10.9213 4.12891L10.9977 4.47047L11.0003 4.46988L10.9213 4.12891ZM10.0345 4.41851L10.1737 4.73962L10.1746 4.73926L10.0345 4.41851ZM9.21607 4.86699L9.0193 4.57753L9.01919 4.57761L9.21607 4.86699ZM8.40165 5.5568L8.65654 5.79666L8.65688 5.7963L8.40165 5.5568ZM8.12013 5.87456L7.84923 5.65294L7.84788 5.6546L8.12013 5.87456ZM7.58925 6.67699L7.28024 6.51264L7.2798 6.51348L7.58925 6.67699ZM7.25947 7.44725L7.59282 7.55391L7.59323 7.55264L7.25947 7.44725ZM7.07447 8.2155L7.4206 8.26741L7.42084 8.26573L7.07447 8.2155ZM7.01615 8.81884L6.66615 8.81537V8.81884H7.01615ZM7.01213 8.8671L6.67234 8.78216L6.66963 8.79501L7.01213 8.8671ZM7.0061 9.09838L7.35426 9.06255L7.35417 9.06175L7.0061 9.09838ZM7.01779 9.28453L7.36747 9.26952L7.36747 9.26952L7.01779 9.28453ZM7.03425 9.51267L6.68718 9.55794L6.68756 9.56067L7.03425 9.51267ZM7.04927 9.62882L6.70196 9.67216L6.70285 9.67928L6.70403 9.68636L7.04927 9.62882ZM7.04927 9.62883L7.39658 9.58549L7.39569 9.57837L7.39451 9.57129L7.04927 9.62883ZM7.09055 9.90283L7.43419 9.83633L7.43355 9.83317L7.09055 9.90283ZM7.22729 10.4539L7.56254 10.3533L7.56254 10.3533L7.22729 10.4539ZM7.47463 11.1015L7.79133 10.9524L7.79126 10.9523L7.47463 11.1015ZM7.93111 11.8838L8.2161 11.6806L8.21577 11.6801L7.93111 11.8838ZM8.44388 12.4972L8.19244 12.7406L8.19289 12.7411L8.44388 12.4972ZM9.12558 13.0784L9.33051 12.7947L9.32991 12.7942L9.12558 13.0784ZM9.81129 13.4887L9.65264 13.8006L9.65338 13.801L9.81129 13.4887ZM10.3804 13.726L10.2646 14.0563L10.2647 14.0563L10.3804 13.726ZM10.871 13.8667L10.7929 14.2079L10.7939 14.2081L10.871 13.8667ZM11.4401 13.9653L11.4765 13.6172L11.4728 13.6168L11.4401 13.9653ZM11.9589 13.9995L11.9658 13.6495L11.963 13.6495L11.9589 13.9995ZM12.5269 13.9695L12.496 13.6209L12.4959 13.6209L12.5269 13.9695ZM12.5743 13.9653L12.6052 14.3139L12.6095 14.3135L12.5743 13.9653ZM13.1071 13.8768L13.1856 14.2179L13.1857 14.2179L13.1071 13.8768ZM14.2111 13.4826L14.3669 13.796L14.3677 13.7957L14.2111 13.4826ZM14.6555 13.2312L14.4725 12.9329L14.47 12.9344L14.6555 13.2312ZM15.3252 12.7285L15.5597 12.9882L15.56 12.988L15.3252 12.7285ZM15.8037 12.2398L16.0691 12.468L16.0711 12.4656L15.8037 12.2398ZM16.1436 11.7953L16.4307 11.9955L16.4317 11.9941L16.1436 11.7953ZM16.4014 11.3694L16.0975 11.1958L16.0967 11.1972L16.4014 11.3694ZM16.4014 11.3694L16.7053 11.543L16.7061 11.5417L16.4014 11.3694ZM16.413 11.3488L16.7177 11.5211L16.718 11.5205L16.413 11.3488ZM16.7408 10.5987L16.409 10.4874L16.4088 10.488L16.7408 10.5987ZM16.9741 9.54686L17.3222 9.58381L17.3227 9.57751L16.9741 9.54686ZM16.9982 8.99783L16.6481 8.99783L16.6483 9.00552L16.9982 8.99783ZM16.9991 8.91153L17.3491 8.91695L17.3491 8.91692L16.9991 8.91153ZM16.9991 8.91135L16.6491 8.90592L16.6491 8.90596L16.9991 8.91135ZM12.3651 17.1145L12.395 16.7657L12.3933 16.7656L12.3651 17.1145ZM12.5643 17.1253L12.5779 16.7756L12.5779 16.7756L12.5643 17.1253ZM12.1017 17.1109L12.0948 16.761L12.0947 16.761L12.1017 17.1109ZM11.9851 17.1124L11.9764 17.4624H11.9851V17.1124ZM11.4954 17.1226L11.4652 16.7739L11.4648 16.7739L11.4954 17.1226ZM11.3206 17.1328L11.3054 16.7831L11.3054 16.7831L11.3206 17.1328ZM11.1458 17.1429L11.1153 16.7943L11.1146 16.7943L11.1458 17.1429ZM11.0507 17.1513L11.0203 16.8026L11.0203 16.8026L11.0507 17.1513ZM10.6703 17.1897L10.6258 16.8425L10.6234 16.8428L10.6703 17.1897ZM10.5376 17.2068L10.4936 16.8596L10.4936 16.8596L10.5376 17.2068ZM10.2172 17.2527L10.2776 17.5974L10.2777 17.5974L10.2172 17.2527ZM9.6258 17.3685L9.69893 17.7108L9.69986 17.7106L9.6258 17.3685ZM8.91861 17.5514L8.81938 17.2157L8.81777 17.2162L8.91861 17.5514ZM8.23581 17.781L8.3592 18.1085L8.35968 18.1084L8.23581 17.781ZM7.35793 18.1529L7.50827 18.469L7.50996 18.4681L7.35793 18.1529ZM6.26667 18.7564L6.45428 19.0519L6.45446 19.0518L6.26667 18.7564ZM4.76085 19.9107L4.99756 20.1685L4.99806 20.168L4.76085 19.9107ZM4.73265 19.9366L4.96932 20.1944L4.96936 20.1944L4.73265 19.9366ZM4.18372 20.4777L4.44564 20.7098L4.44647 20.7089L4.18372 20.4777ZM4.02115 20.7845L4.36077 20.8694L4.36239 20.8623L4.02115 20.7845ZM4.01237 20.9184L3.66247 20.9268L3.66247 20.9268L4.01237 20.9184ZM4.01302 20.9593L3.663 20.9593L3.66304 20.9632L4.01302 20.9593ZM4.2264 21.4023L3.99563 21.6654L3.9964 21.6661L4.2264 21.4023ZM4.77711 21.5303L4.71407 21.186L4.71388 21.1861L4.77711 21.5303ZM5.1368 21.3108L5.39392 21.5486L5.40128 21.5401L5.1368 21.3108ZM5.15342 21.2915L4.88706 21.0644L4.88705 21.0644L5.15342 21.2915ZM5.21605 21.2235L5.4543 21.48L5.46086 21.4736L5.21605 21.2235ZM5.50461 20.9471L5.26701 20.6901L5.26523 20.6917L5.50461 20.9471ZM5.57593 20.8808L5.81464 21.1367L5.81465 21.1367L5.57593 20.8808ZM5.82976 20.6524L5.60597 20.3833L5.60521 20.3839L5.82976 20.6524ZM6.41908 20.1871L6.62359 20.4711L6.62511 20.47L6.41908 20.1871ZM7.66885 19.4149L7.51031 19.1028L7.50943 19.1033L7.66885 19.4149ZM8.43903 19.0633L8.57204 19.387L8.57387 19.3863L8.43903 19.0633ZM9.07915 18.8296L9.18605 19.1629L9.18668 19.1627L9.07915 18.8296ZM9.86762 18.6162L9.79327 18.2742L9.79198 18.2745L9.86762 18.6162ZM10.4305 18.5085L10.3769 18.1626L10.3748 18.163L10.4305 18.5085ZM10.8654 18.4496L10.8268 18.1017L10.8262 18.1018L10.8654 18.4496ZM10.9479 18.4401L10.9074 18.0925L10.9074 18.0925L10.9479 18.4401ZM11.3023 18.411L11.3072 18.7609L11.3222 18.7607L11.3371 18.7592L11.3023 18.411ZM11.3612 18.4069L11.3277 18.0585L11.3264 18.0586L11.3612 18.4069ZM11.8673 18.3805L11.8596 18.0306L11.8588 18.0306L11.8673 18.3805ZM12.422 18.3947L12.3952 18.7437L12.3965 18.7438L12.422 18.3947ZM12.5869 18.4046L12.5683 18.7541L12.5683 18.7541L12.5869 18.4046ZM12.9179 18.4313L12.8708 18.7781L12.8736 18.7785L12.9179 18.4313ZM13.0502 18.4437L13.0773 18.0948L13.0773 18.0948L13.0502 18.4437ZM13.2085 18.4597L13.1569 18.8059L13.159 18.8062L13.2085 18.4597ZM13.4683 18.5017L13.5272 18.1567L13.5272 18.1567L13.4683 18.5017ZM13.6312 18.5288L13.5761 18.8745L13.5776 18.8747L13.6312 18.5288ZM14.5619 18.7361L14.466 19.0727L14.4669 19.073L14.5619 18.7361ZM15.8685 19.2137L16.015 18.8958L16.0139 18.8953L15.8685 19.2137ZM16.9232 19.7806L16.7369 20.0769L16.7383 20.0778L16.9232 19.7806ZM17.5044 20.1728L17.2978 20.4554L17.299 20.4562L17.5044 20.1728ZM18.1425 20.6849L18.3754 20.4237L18.3739 20.4223L18.1425 20.6849ZM18.2672 20.7993L18.029 21.0556L18.029 21.0556L18.2672 20.7993ZM18.4229 20.941L18.6566 20.6804L18.653 20.6772L18.4229 20.941ZM18.7603 21.2783L18.5019 21.5144L18.5023 21.5148L18.7603 21.2783ZM18.9025 21.4104L18.7033 21.6982L18.7044 21.6989L18.9025 21.4104ZM19.4573 21.5201L19.3782 21.1792L19.3781 21.1792L19.4573 21.5201ZM19.7987 21.3047L19.5389 21.0703L19.5388 21.0703L19.7987 21.3047ZM19.9369 20.7236L19.5955 20.8008L19.5955 20.8008L19.9369 20.7236ZM19.7743 20.4512L20.0218 20.2038L20.0218 20.2038L19.7743 20.4512ZM19.6682 20.3447L19.9164 20.0979L19.9164 20.0979L19.6682 20.3447ZM19.0936 19.7969L18.8628 20.0601L18.866 20.0628L19.0936 19.7969ZM18.6912 19.4575L18.4742 19.7322L18.476 19.7336L18.6912 19.4575ZM18.1852 19.0775L18.3908 18.7943L18.3889 18.7929L18.1852 19.0775ZM16.8785 18.285L16.7177 18.5959L16.7198 18.5969L16.8785 18.285ZM16.1551 17.9476L16.0191 18.2701L16.0191 18.2702L16.1551 17.9476ZM14.7183 17.4599L14.6285 17.7982L14.6302 17.7986L14.7183 17.4599ZM14.0254 17.3035L13.9623 17.6477L13.9654 17.6483L14.0254 17.3035ZM13.9264 17.285L13.8615 17.6289L13.8615 17.6289L13.9264 17.285ZM13.6616 17.2384L13.6008 17.5832L13.6097 17.5846L13.6616 17.2384ZM13.5669 17.2252L13.6092 16.8778L13.6092 16.8778L13.5669 17.2252ZM13.4503 17.2079L13.5189 16.8647L13.5148 16.8639L13.4503 17.2079ZM13.1516 17.1693L13.1279 17.5185L13.1302 17.5187L13.1516 17.1693ZM12.7919 17.1389L12.8273 16.7906L12.8267 16.7906L12.7919 17.1389ZM18.01 9.09535L18.36 9.09292C18.3598 9.06184 18.3595 9.03218 18.3595 9.00273H18.0095H17.6595C17.6595 9.03502 17.6598 9.06711 17.66 9.09779L18.01 9.09535ZM18.01 9.09546H18.36V9.09535H18.01H17.66V9.09546H18.01ZM18.0095 9.28061L18.3595 9.2879C18.3609 9.22051 18.3604 9.15394 18.36 9.09303L18.01 9.09546L17.66 9.09789C17.6604 9.16041 17.6608 9.21727 17.6596 9.27332L18.0095 9.28061ZM17.983 9.63195L18.3313 9.66661C18.3428 9.55135 18.3557 9.42261 18.3594 9.29032L18.0095 9.28061L17.6597 9.27089C17.6568 9.37404 17.6466 9.47796 17.6348 9.59729L17.983 9.63195ZM17.9768 9.6955L18.3251 9.72989L18.3313 9.66634L17.983 9.63195L17.6347 9.59755L17.6284 9.6611L17.9768 9.6955ZM17.888 10.2513L18.2312 10.3199C18.2687 10.1322 18.304 9.9346 18.3249 9.73138L17.9768 9.6955L17.6286 9.65962C17.611 9.83076 17.5806 10.0036 17.5448 10.1826L17.888 10.2513ZM17.7298 10.8398L18.0622 10.9495C18.1294 10.7458 18.1873 10.5373 18.2311 10.3205L17.888 10.2513L17.5449 10.182C17.5077 10.3666 17.4576 10.5478 17.3975 10.7302L17.7298 10.8398ZM17.1357 12.1308L17.4343 12.3133C17.6973 11.883 17.9076 11.4276 18.0629 10.9475L17.7298 10.8398L17.3968 10.7322C17.2588 11.159 17.0718 11.5642 16.837 11.9483L17.1357 12.1308ZM16.7402 12.7001L17.0153 12.9165C17.1674 12.7232 17.3061 12.5211 17.4335 12.3147L17.1357 12.1308L16.8379 11.9469C16.7223 12.1342 16.5986 12.3141 16.4652 12.4836L16.7402 12.7001ZM16.0959 13.4025L16.3327 13.6603C16.5841 13.4293 16.8091 13.1794 17.0156 12.9161L16.7402 12.7001L16.4648 12.4841C16.2779 12.7224 16.0784 12.9434 15.8592 13.1447L16.0959 13.4025ZM15.2645 14.0489L15.4547 14.3428C15.7669 14.1407 16.0605 13.9122 16.3337 13.6593L16.0959 13.4025L15.8582 13.1456C15.6143 13.3713 15.3524 13.5751 15.0743 13.7551L15.2645 14.0489ZM14.2305 14.5835L14.3603 14.9085C14.745 14.755 15.1081 14.5651 15.4535 14.3435L15.2645 14.0489L15.0755 13.7543C14.765 13.9535 14.4414 14.1225 14.1008 14.2584L14.2305 14.5835ZM13.4936 14.8247L13.5798 15.1639C13.8466 15.0962 14.1062 15.0102 14.3606 14.9084L14.2305 14.5835L14.1005 14.2585C13.8726 14.3497 13.6422 14.4258 13.4075 14.4854L13.4936 14.8247ZM12.7124 14.9694L12.758 15.3164C13.0306 15.2806 13.3057 15.234 13.5803 15.1638L13.4936 14.8247L13.4069 14.4856C13.1684 14.5466 12.9227 14.5887 12.6668 14.6224L12.7124 14.9694ZM11.6591 15.0003L11.6476 15.3501C12.0013 15.3618 12.3767 15.3667 12.7581 15.3164L12.7124 14.9694L12.6666 14.6224C12.3458 14.6647 12.0191 14.662 11.6706 14.6505L11.6591 15.0003ZM11.1909 14.9526L11.1438 15.2994C11.2968 15.3202 11.4705 15.3441 11.6473 15.3501L11.6591 15.0003L11.6709 14.6505C11.5356 14.6459 11.3972 14.6274 11.238 14.6058L11.1909 14.9526ZM11.144 14.9462L11.097 15.2931L11.1439 15.2994L11.1909 14.9526L11.2379 14.6058L11.1911 14.5994L11.144 14.9462ZM10.4747 14.8092L10.3828 15.147C10.6165 15.2106 10.8552 15.26 11.0966 15.293L11.144 14.9462L11.1915 14.5995C10.9815 14.5708 10.7726 14.5276 10.5665 14.4715L10.4747 14.8092ZM9.67218 14.5314L9.53398 14.8529C9.81012 14.9716 10.0942 15.0697 10.3842 15.1473L10.4747 14.8092L10.5652 14.4711C10.3073 14.4021 10.0551 14.315 9.81038 14.2098L9.67218 14.5314ZM8.65171 13.9737L8.45552 14.2635C8.79618 14.4941 9.1551 14.6899 9.53385 14.8529L9.67218 14.5314L9.81051 14.2099C9.47164 14.0641 9.15153 13.8894 8.8479 13.6838L8.65171 13.9737ZM7.56565 13.0281L7.3072 13.2641C7.65021 13.6397 8.02955 13.9747 8.45527 14.2634L8.65171 13.9737L8.84814 13.684C8.47137 13.4285 8.13311 13.1305 7.8241 12.7921L7.56565 13.0281ZM6.80174 11.9745L6.49783 12.1481C6.72613 12.5477 6.99571 12.9218 7.30677 13.2637L7.56565 13.0281L7.82453 12.7926C7.54915 12.4899 7.30947 12.1577 7.10565 11.8009L6.80174 11.9745ZM6.2674 10.7375L5.93248 10.8392C6.0712 11.2963 6.25916 11.7339 6.49848 12.1492L6.80174 11.9745L7.10501 11.7998C6.89293 11.4317 6.72594 11.0433 6.60231 10.6359L6.2674 10.7375ZM6.08606 9.93671L5.73993 9.98861C5.78312 10.2766 5.84873 10.5613 5.93228 10.8385L6.2674 10.7375L6.60251 10.6365C6.52788 10.3889 6.47003 10.1371 6.43219 9.88481L6.08606 9.93671ZM6.05267 9.66786L5.70482 9.7066C5.71475 9.79572 5.72539 9.89164 5.73993 9.98861L6.08606 9.93671L6.43219 9.88481C6.41995 9.80314 6.41069 9.72041 6.40052 9.62911L6.05267 9.66786ZM6.04362 9.58743L5.69582 9.62656L5.70487 9.70699L6.05267 9.66786L6.40048 9.62873L6.39143 9.5483L6.04362 9.58743ZM6.01276 9.07992L5.66296 9.09184C5.66881 9.26334 5.67683 9.44304 5.69548 9.62343L6.04362 9.58743L6.39177 9.55143C6.3757 9.39605 6.36829 9.23613 6.36256 9.068L6.01276 9.07992ZM6.01994 8.75368L5.67034 8.73684C5.66523 8.84295 5.6591 8.9664 5.66293 9.09068L6.01276 9.07992L6.36259 9.06916C6.35976 8.97716 6.36419 8.88146 6.36953 8.77051L6.01994 8.75368ZM6.02241 8.70169L5.6728 8.68509L5.67033 8.73708L6.01994 8.75368L6.36954 8.77028L6.37201 8.71829L6.02241 8.70169ZM6.04748 8.36013L5.69873 8.33059C5.68917 8.44345 5.67899 8.56319 5.67286 8.68393L6.02241 8.70169L6.37195 8.71946C6.37739 8.61249 6.3865 8.50452 6.39623 8.38968L6.04748 8.36013ZM6.09185 8.0205L5.74677 7.96204C5.72569 8.08647 5.71127 8.20682 5.69928 8.32473L6.04748 8.36013L6.39569 8.39553C6.40685 8.28575 6.41943 8.18225 6.43693 8.07897L6.09185 8.0205ZM6.4468 6.76812L6.12182 6.63817C5.95103 7.06529 5.82447 7.50593 5.74682 7.96173L6.09185 8.0205L6.43688 8.07928C6.50585 7.67443 6.61849 7.28143 6.77178 6.89807L6.4468 6.76812ZM6.81718 6.0136L6.51431 5.83819C6.36635 6.09364 6.23316 6.35971 6.12182 6.63817L6.4468 6.76812L6.77178 6.89807C6.86877 6.6555 6.98636 6.41984 7.12005 6.18901L6.81718 6.0136ZM7.3766 5.20891L7.10651 4.98631C6.88554 5.25443 6.68977 5.53815 6.51505 5.83691L6.81718 6.0136L7.1193 6.19029C7.27638 5.92171 7.45099 5.66897 7.6467 5.43151L7.3766 5.20891ZM7.93989 4.60877L7.70367 4.3505C7.48668 4.54896 7.28809 4.7643 7.10568 4.98732L7.3766 5.20891L7.64752 5.4305C7.81234 5.22899 7.98799 5.03908 8.1761 4.86704L7.93989 4.60877ZM9.22849 3.69794L9.06586 3.38802C8.56618 3.65024 8.11558 3.97499 7.70409 4.35012L7.93989 4.60877L8.17568 4.86742C8.54739 4.52856 8.94943 4.23965 9.39113 4.00786L9.22849 3.69794ZM10.2953 3.2599L10.1919 2.9255C9.80442 3.04524 9.42747 3.19796 9.06566 3.38813L9.22849 3.69794L9.39133 4.00776C9.71241 3.839 10.0492 3.70226 10.3986 3.5943L10.2953 3.2599ZM11.0514 3.08429L10.9943 2.73899C10.7237 2.78376 10.4559 2.84503 10.1932 2.9251L10.2953 3.2599L10.3973 3.59469C10.6284 3.52425 10.866 3.46973 11.1086 3.4296L11.0514 3.08429ZM11.6012 3.02061L11.5719 2.67185C11.3845 2.68763 11.1897 2.70779 10.9963 2.73867L11.0514 3.08429L11.1066 3.42992C11.2758 3.40291 11.4514 3.38447 11.6306 3.36938L11.6012 3.02061ZM12.1643 3.00958L12.1688 2.65961C11.9832 2.65721 11.7788 2.6543 11.5717 2.67186L11.6012 3.02061L11.6308 3.36936C11.7983 3.35516 11.9685 3.35708 12.1597 3.35955L12.1643 3.00958ZM12.286 3.01097L12.289 2.66098C12.2492 2.66064 12.2094 2.66013 12.1688 2.65961L12.1643 3.00958L12.1597 3.35955C12.2002 3.36007 12.2415 3.3606 12.2831 3.36095L12.286 3.01097ZM12.4931 3.02731L12.5342 2.67974C12.4688 2.67199 12.3792 2.66097 12.286 2.66097V3.01097V3.36097C12.3309 3.36097 12.3794 3.36629 12.4519 3.37488L12.4931 3.02731ZM12.5523 3.03412L12.5901 2.68617C12.5723 2.68424 12.5542 2.6821 12.5342 2.67974L12.4931 3.02731L12.4519 3.37488C12.4714 3.37718 12.4928 3.37972 12.5144 3.38207L12.5523 3.03412ZM12.6256 3.04227L12.6652 2.69452C12.641 2.69177 12.6151 2.6888 12.5889 2.68605L12.5523 3.03412L12.5156 3.3822C12.5383 3.38458 12.5612 3.3872 12.5859 3.39001L12.6256 3.04227ZM12.7722 3.05728L12.7997 2.70836C12.7579 2.70506 12.7151 2.70022 12.6652 2.69452L12.6256 3.04227L12.5859 3.39001C12.6337 3.39547 12.6887 3.40177 12.7446 3.40619L12.7722 3.05728ZM13.3547 3.15955L13.43 2.81773C13.2373 2.77532 13.0261 2.7305 12.8063 2.70895L12.7722 3.05728L12.738 3.40561C12.9118 3.42265 13.0864 3.45887 13.2795 3.50137L13.3547 3.15955ZM13.9489 3.32937L14.0635 2.99867C13.8583 2.92753 13.6481 2.86553 13.4297 2.81766L13.3547 3.15955L13.2798 3.50144C13.4665 3.54234 13.6498 3.59613 13.8343 3.66006L13.9489 3.32937ZM14.6896 3.64005L14.8462 3.32702C14.5935 3.20064 14.3321 3.09025 14.0619 2.9981L13.9489 3.32937L13.8359 3.66063C14.075 3.74216 14.3074 3.84018 14.5331 3.95308L14.6896 3.64005ZM15.496 4.12827L15.6995 3.8435C15.4294 3.65051 15.1456 3.47678 14.8462 3.32702L14.6896 3.64005L14.5331 3.95308C14.7969 4.08506 15.0495 4.23938 15.2925 4.41304L15.496 4.12827ZM15.9377 4.47755L16.1685 4.21441C16.0176 4.08208 15.8601 3.95941 15.7008 3.84447L15.496 4.12827L15.2912 4.41207C15.4367 4.51712 15.5762 4.62602 15.707 4.74069L15.9377 4.47755ZM16.4663 4.99471L16.7246 4.7585C16.5508 4.56852 16.3656 4.38515 16.1669 4.21301L15.9377 4.47755L15.7086 4.74209C15.8841 4.89414 16.05 5.05812 16.208 5.23092L16.4663 4.99471ZM17.0064 5.68748L17.2966 5.49179C17.1254 5.23791 16.9373 4.98984 16.724 4.75784L16.4663 4.99471L16.2086 5.23159C16.3927 5.43184 16.5595 5.65076 16.7163 5.88317L17.0064 5.68748ZM17.5099 6.60216L17.83 6.46055C17.6807 6.12317 17.5025 5.79938 17.2973 5.4928L17.0064 5.68748L16.7156 5.88216C16.8983 6.15511 17.057 6.44339 17.1899 6.74377L17.5099 6.60216ZM17.8244 7.50913L18.1635 7.42278C18.0794 7.0923 17.9668 6.77104 17.8302 6.46103L17.5099 6.60216L17.1896 6.74329C17.3115 7.01992 17.4111 7.30459 17.4852 7.59548L17.8244 7.50913ZM17.9536 8.16137L18.2998 8.10977C18.2658 7.88193 18.2231 7.65078 18.163 7.42069L17.8244 7.50913L17.4857 7.59757C17.5375 7.79587 17.5758 8.00084 17.6074 8.21298L17.9536 8.16137ZM18.0095 9.00273L18.3593 9.0147C18.3699 8.70604 18.3444 8.40396 18.2996 8.10889L17.9536 8.16137L17.6076 8.21386C17.6477 8.47841 17.6685 8.73594 17.6598 8.99075L18.0095 9.00273ZM16.9524 8.29635L16.6053 8.34147C16.6248 8.492 16.6418 8.62361 16.6487 8.75655L16.9982 8.73839L17.3477 8.72024C17.3392 8.55581 17.3184 8.39748 17.2994 8.25123L16.9524 8.29635ZM16.95 8.27785L16.6029 8.32295L16.6053 8.34146L16.9524 8.29635L17.2994 8.25124L17.297 8.23274L16.95 8.27785ZM16.8273 7.69462L16.4897 7.787C16.5395 7.96908 16.5796 8.14555 16.6029 8.32341L16.95 8.27785L17.297 8.23228C17.268 8.01194 17.2196 7.80227 17.1649 7.60224L16.8273 7.69462ZM16.6885 7.26424L16.3604 7.38609C16.4105 7.52079 16.4544 7.65154 16.4886 7.78277L16.8273 7.69462L17.166 7.60647C17.1237 7.44407 17.0712 7.28925 17.0166 7.14239L16.6885 7.26424ZM16.3306 6.50806L16.0272 6.68251C16.1572 6.90875 16.2695 7.14286 16.3607 7.38685L16.6885 7.26424L17.0164 7.14163C16.9105 6.85871 16.7814 6.59003 16.634 6.33361L16.3306 6.50806ZM15.9767 5.97914L15.6983 6.19124C15.8192 6.34995 15.9292 6.51245 16.0273 6.68276L16.3306 6.50806L16.6339 6.33336C16.5188 6.13362 16.3916 5.94619 16.2551 5.76704L15.9767 5.97914ZM15.3714 5.31748L15.1347 5.57527C15.342 5.7657 15.5306 5.96947 15.6975 6.19024L15.9767 5.97914L16.2558 5.76803C16.0608 5.51015 15.8432 5.2755 15.6081 5.05968L15.3714 5.31748ZM14.6676 4.78051L14.4823 5.07743C14.7135 5.22174 14.9302 5.38955 15.1361 5.57655L15.3714 5.31748L15.6067 5.0584C15.3742 4.8472 15.1244 4.65301 14.8529 4.48359L14.6676 4.78051ZM13.5998 4.26968L13.4881 4.60136C13.8369 4.7189 14.1674 4.87756 14.48 5.076L14.6676 4.78051L14.8552 4.48502C14.4961 4.2571 14.1148 4.07387 13.7116 3.93801L13.5998 4.26968ZM12.892 4.08868L12.8316 4.43344C13.0551 4.47255 13.273 4.52841 13.4874 4.60114L13.5998 4.26968L13.7122 3.93823C13.4642 3.85409 13.2115 3.78928 12.9523 3.74392L12.892 4.08868ZM12.2807 4.01628L12.2669 4.36601C12.4498 4.37319 12.6355 4.39849 12.8306 4.43325L12.892 4.08868L12.9534 3.74411C12.7422 3.70648 12.5218 3.67547 12.2944 3.66655L12.2807 4.01628ZM12.225 4.01553L12.2223 4.36552C12.2413 4.36567 12.2569 4.3658 12.2719 4.36617L12.2807 4.01628L12.2894 3.66639C12.2673 3.66584 12.2457 3.66568 12.2277 3.66554L12.225 4.01553ZM12.0394 4.0022L11.9707 4.34541C12.0705 4.36537 12.1656 4.36509 12.2223 4.36552L12.225 4.01553L12.2277 3.66554C12.1606 3.66503 12.1319 3.66379 12.108 3.659L12.0394 4.0022ZM11.9721 4.00335L12.0125 4.351C12.0188 4.35027 12.0214 4.34997 12.0235 4.34977C12.0253 4.3496 12.0241 4.34975 12.0212 4.34987C12.0163 4.35008 11.9972 4.3507 11.9707 4.34541L12.0394 4.0022L12.108 3.659C12.0226 3.64192 11.9418 3.65451 11.9316 3.65569L11.9721 4.00335ZM11.9428 4.00623L11.9647 4.35555C11.9852 4.35426 12.0044 4.35194 12.0125 4.351L11.9721 4.00335L11.9316 3.65569C11.9263 3.65631 11.9237 3.65661 11.9215 3.65683C11.9195 3.65704 11.9196 3.657 11.921 3.65691L11.9428 4.00623ZM11.9163 4.00993L11.9728 4.35533C11.9778 4.35452 11.9791 4.35431 11.9799 4.35419C11.9804 4.35412 11.9783 4.35445 11.9745 4.35479L11.9428 4.00623L11.9111 3.65766C11.8877 3.65979 11.8665 3.66343 11.8598 3.66452L11.9163 4.00993ZM11.8765 4.01427V4.36427C11.923 4.36427 11.9646 4.35668 11.9728 4.35533L11.9163 4.00993L11.8598 3.66452C11.8562 3.66511 11.8546 3.66537 11.8533 3.66557C11.8521 3.66574 11.8525 3.66567 11.8537 3.66552C11.856 3.66524 11.8644 3.66427 11.8765 3.66427V4.01427ZM11.5004 4.03438L11.5391 4.38224C11.6515 4.36975 11.7632 4.36427 11.8765 4.36427V4.01427V3.66427C11.7404 3.66427 11.6027 3.67086 11.4618 3.68652L11.5004 4.03438ZM10.9213 4.12891L11.0003 4.46988C11.1731 4.42985 11.3516 4.40351 11.5399 4.38215L11.5004 4.03438L11.461 3.68661C11.2592 3.7095 11.0515 3.73948 10.8423 3.78793L10.9213 4.12891ZM10.0345 4.41851L10.1746 4.73926C10.4395 4.62357 10.7138 4.53398 10.9977 4.47046L10.9213 4.12891L10.8449 3.78735C10.5175 3.86058 10.2006 3.96406 9.89444 4.09775L10.0345 4.41851ZM9.21607 4.86699L9.41283 5.15644C9.65112 4.99446 9.9052 4.85606 10.1737 4.73962L10.0345 4.41851L9.89526 4.0974C9.58868 4.23033 9.2958 4.38958 9.0193 4.57753L9.21607 4.86699ZM8.40165 5.5568L8.65688 5.7963C8.8825 5.55585 9.1358 5.34492 9.41294 5.15636L9.21607 4.86699L9.01919 4.57761C8.70513 4.79128 8.41146 5.03485 8.14643 5.31731L8.40165 5.5568ZM8.12013 5.87456L8.39103 6.09618C8.4745 5.99414 8.56305 5.896 8.65654 5.79666L8.40165 5.5568L8.14677 5.31694C8.04721 5.42273 7.94673 5.53376 7.84923 5.65294L8.12013 5.87456ZM7.58925 6.67699L7.89827 6.84134C8.03856 6.57756 8.20319 6.32869 8.39238 6.09451L8.12013 5.87456L7.84788 5.6546C7.63087 5.92321 7.44158 6.20929 7.28024 6.51264L7.58925 6.67699ZM7.25947 7.44725L7.59323 7.55264C7.66966 7.31058 7.77481 7.07499 7.89871 6.84051L7.58925 6.67699L7.2798 6.51348C7.14228 6.77373 7.01819 7.04897 6.92571 7.34187L7.25947 7.44725ZM7.07447 8.2155L7.42084 8.26573C7.45539 8.02751 7.51604 7.79386 7.59282 7.55391L7.25947 7.44725L6.92612 7.34059C6.84202 7.60342 6.76996 7.87658 6.72809 8.16527L7.07447 8.2155ZM7.01615 8.81884L7.36613 8.8223C7.36789 8.64513 7.39075 8.46643 7.4206 8.26741L7.07447 8.2155L6.72834 8.16359C6.69786 8.3668 6.66844 8.58629 6.66617 8.81537L7.01615 8.81884ZM7.01213 8.8671L7.35168 8.95198C7.36782 8.88744 7.36615 8.82843 7.36615 8.81884H7.01615H6.66615C6.66615 8.82331 6.66614 8.8246 6.66613 8.82544C6.66612 8.82596 6.66614 8.82422 6.66633 8.82114C6.66672 8.81496 6.66795 8.80073 6.67258 8.78222L7.01213 8.8671ZM7.0061 9.09838L7.35417 9.06175C7.34783 9.00145 7.34933 8.96434 7.35462 8.9392L7.01213 8.8671L6.66963 8.79501C6.64275 8.92272 6.64828 9.04247 6.65802 9.13502L7.0061 9.09838ZM7.01779 9.28453L7.36747 9.26952C7.36487 9.20895 7.36186 9.13638 7.35426 9.06255L7.0061 9.09838L6.65794 9.13422C6.66304 9.18379 6.66536 9.23544 6.66811 9.29954L7.01779 9.28453ZM7.03425 9.51267L7.38131 9.46741C7.37367 9.4088 7.37083 9.34778 7.36747 9.26952L7.01779 9.28453L6.66811 9.29954C6.67126 9.37293 6.67497 9.46423 6.68719 9.55794L7.03425 9.51267ZM7.04927 9.62882L7.39658 9.58549C7.3918 9.54719 7.38668 9.50613 7.38094 9.46468L7.03425 9.51267L6.68756 9.56067C6.69254 9.59669 6.69709 9.63309 6.70196 9.67216L7.04927 9.62882ZM7.04927 9.62883L7.39451 9.57129L7.39451 9.57128L7.04927 9.62882L6.70403 9.68636L6.70403 9.68637L7.04927 9.62883ZM7.09055 9.90283L7.43355 9.83317C7.41826 9.75786 7.40832 9.67957 7.39658 9.58549L7.04927 9.62883L6.70196 9.67216C6.71315 9.76181 6.72606 9.86666 6.74756 9.97249L7.09055 9.90283ZM7.22729 10.4539L7.56254 10.3533C7.51119 10.1821 7.46789 10.0105 7.43418 9.83633L7.09055 9.90283L6.74693 9.96933C6.78561 10.1692 6.83481 10.3636 6.89205 10.5544L7.22729 10.4539ZM7.47463 11.1015L7.79126 10.9523C7.70043 10.7595 7.62411 10.5586 7.56254 10.3533L7.22729 10.4539L6.89205 10.5544C6.9632 10.7916 7.05177 11.0251 7.15801 11.2506L7.47463 11.1015ZM7.93111 11.8838L8.21577 11.6801C8.05203 11.4513 7.91172 11.2083 7.79133 10.9524L7.47463 11.1015L7.15794 11.2505C7.29494 11.5416 7.45626 11.8216 7.64644 12.0874L7.93111 11.8838ZM8.44388 12.4972L8.69532 12.2537C8.52149 12.0742 8.35997 11.8824 8.2161 11.6806L7.93111 11.8838L7.64611 12.087C7.81192 12.3195 7.99627 12.5381 8.19244 12.7406L8.44388 12.4972ZM9.12558 13.0784L9.32991 12.7942C9.09998 12.6289 8.88707 12.451 8.69488 12.2532L8.44388 12.4972L8.19289 12.7411C8.41896 12.9737 8.66454 13.178 8.92124 13.3625L9.12558 13.0784ZM9.81129 13.4887L9.96994 13.1767C9.74274 13.0611 9.52838 12.9376 9.33051 12.7947L9.12558 13.0784L8.92064 13.3621C9.15712 13.5329 9.40527 13.6748 9.65264 13.8006L9.81129 13.4887ZM10.3804 13.726L10.4962 13.3957C10.3102 13.3305 10.1343 13.2598 9.9692 13.1763L9.81129 13.4887L9.65338 13.801C9.85427 13.9026 10.0605 13.9847 10.2646 14.0563L10.3804 13.726ZM10.871 13.8667L10.9491 13.5256C10.7939 13.49 10.6436 13.4473 10.496 13.3956L10.3804 13.726L10.2647 14.0563C10.4388 14.1173 10.6143 14.167 10.7929 14.2079L10.871 13.8667ZM11.4401 13.9653L11.4728 13.6168C11.3028 13.6009 11.1314 13.5667 10.9481 13.5253L10.871 13.8667L10.7939 14.2081C10.9846 14.2512 11.1914 14.2935 11.4074 14.3138L11.4401 13.9653ZM11.9589 13.9995L11.963 13.6495C11.8056 13.6477 11.6449 13.6348 11.4765 13.6172L11.4401 13.9653L11.4037 14.3134C11.5812 14.332 11.7663 14.3473 11.9549 14.3495L11.9589 13.9995ZM12.5269 13.9695L12.4959 13.6209C12.3033 13.638 12.1329 13.6528 11.9658 13.6495L11.9589 13.9995L11.9521 14.3494C12.1635 14.3536 12.3718 14.3347 12.5579 14.3181L12.5269 13.9695ZM12.5743 13.9653L12.5433 13.6167L12.496 13.6209L12.5269 13.9695L12.5578 14.3181L12.6052 14.3139L12.5743 13.9653ZM13.1071 13.8768L13.0287 13.5357C12.8672 13.5728 12.7027 13.6005 12.539 13.6171L12.5743 13.9653L12.6095 14.3135C12.8038 14.2939 12.9972 14.2612 13.1856 14.2179L13.1071 13.8768ZM14.2111 13.4826L14.0553 13.1692C13.7285 13.3317 13.3865 13.4533 13.0286 13.5357L13.1071 13.8768L13.1857 14.2179C13.5959 14.1234 13.9899 13.9835 14.3669 13.796L14.2111 13.4826ZM14.6555 13.2312L14.47 12.9344C14.3323 13.0205 14.1953 13.0992 14.0546 13.1696L14.2111 13.4826L14.3677 13.7957C14.5325 13.7132 14.6891 13.623 14.841 13.528L14.6555 13.2312ZM15.3252 12.7285L15.0906 12.4687C14.8985 12.6421 14.6924 12.798 14.4725 12.9329L14.6555 13.2312L14.8386 13.5296C15.0972 13.3709 15.3376 13.1888 15.5597 12.9882L15.3252 12.7285ZM15.8037 12.2398L15.5384 12.0115C15.4 12.1723 15.2495 12.3249 15.0903 12.4689L15.3252 12.7285L15.56 12.988C15.7386 12.8264 15.9098 12.6531 16.0691 12.468L15.8037 12.2398ZM16.1436 11.7953L15.8565 11.5951C15.7551 11.7406 15.649 11.8806 15.5364 12.0139L15.8037 12.2398L16.0711 12.4656C16.1998 12.3133 16.3189 12.1557 16.4307 11.9955L16.1436 11.7953ZM16.4014 11.3694L16.0967 11.1972C16.013 11.3452 15.9392 11.4752 15.8555 11.5965L16.1436 11.7953L16.4317 11.9941C16.5361 11.8427 16.6249 11.6852 16.706 11.5417L16.4014 11.3694ZM16.4014 11.3694L16.0975 11.1957L16.0975 11.1958L16.4014 11.3694L16.7053 11.5431L16.7053 11.543L16.4014 11.3694ZM16.413 11.3488L16.1084 11.1765L16.0967 11.1971L16.4014 11.3694L16.7061 11.5417L16.7177 11.5211L16.413 11.3488ZM16.7408 10.5987L16.4088 10.488C16.3281 10.73 16.2301 10.9604 16.1081 11.1771L16.413 11.3488L16.718 11.5205C16.8655 11.2586 16.9806 10.9862 17.0729 10.7093L16.7408 10.5987ZM16.9741 9.54686L16.626 9.50992C16.5908 9.8421 16.5164 10.1671 16.409 10.4874L16.7408 10.5987L17.0727 10.7099C17.1945 10.3465 17.281 9.9716 17.3221 9.5838L16.9741 9.54686ZM16.9982 8.99783L16.6483 9.00552C16.6519 9.16917 16.6412 9.33708 16.6254 9.51621L16.9741 9.54686L17.3227 9.57751C17.3392 9.39062 17.3526 9.19251 17.3481 8.99014L16.9982 8.99783ZM16.9991 8.91153L16.6491 8.90612C16.6487 8.93443 16.6482 8.9659 16.6482 8.99783H16.9982H17.3482C17.3482 8.97222 17.3486 8.94617 17.3491 8.91695L16.9991 8.91153ZM16.9991 8.91135L16.6491 8.90596L16.6491 8.90615L16.9991 8.91153L17.3491 8.91692L17.3491 8.91673L16.9991 8.91135ZM16.9982 8.73839L16.6486 8.75465C16.6507 8.79966 16.6501 8.84647 16.6491 8.90592L16.9991 8.91135L17.3491 8.91677C17.3499 8.86092 17.3511 8.79243 17.3478 8.72213L16.9982 8.73839ZM12.3651 17.1145L12.3352 17.4632C12.4111 17.4697 12.4856 17.4725 12.5506 17.4751L12.5643 17.1253L12.5779 16.7756C12.5102 16.773 12.4519 16.7706 12.395 16.7657L12.3651 17.1145ZM12.1017 17.1109L12.1086 17.4608C12.1995 17.459 12.2701 17.4579 12.337 17.4633L12.3651 17.1145L12.3933 16.7656C12.2855 16.7569 12.1796 16.7593 12.0948 16.761L12.1017 17.1109ZM11.9851 17.1124V17.4624C12.0278 17.4624 12.0702 17.4616 12.1086 17.4608L12.1017 17.1109L12.0947 16.761C12.0552 16.7617 12.0198 16.7624 11.9851 16.7624V17.1124ZM11.4954 17.1226L11.5255 17.4713C11.6711 17.4587 11.8188 17.4584 11.9764 17.4623L11.9851 17.1124L11.9939 16.7625C11.8263 16.7584 11.6488 16.758 11.4652 16.7739L11.4954 17.1226ZM11.3206 17.1328L11.3358 17.4824C11.3929 17.4799 11.4591 17.4771 11.526 17.4713L11.4954 17.1226L11.4648 16.7739C11.4158 16.7782 11.3652 16.7805 11.3054 16.7831L11.3206 17.1328ZM11.1458 17.1429L11.1764 17.4916C11.2254 17.4873 11.2761 17.485 11.3358 17.4824L11.3206 17.1328L11.3054 16.7831C11.2483 16.7856 11.1821 16.7884 11.1153 16.7943L11.1458 17.1429ZM11.0507 17.1513L11.0811 17.5C11.1128 17.4972 11.1449 17.4944 11.1771 17.4915L11.1458 17.1429L11.1146 16.7943C11.0834 16.7971 11.0521 16.7998 11.0203 16.8026L11.0507 17.1513ZM10.6703 17.1897L10.7148 17.5368C10.8334 17.5216 10.9532 17.5111 11.0811 17.5L11.0507 17.1513L11.0203 16.8026C10.8947 16.8136 10.7608 16.8252 10.6258 16.8425L10.6703 17.1897ZM10.5376 17.2068L10.5816 17.5541C10.6257 17.5485 10.6714 17.5427 10.7172 17.5365L10.6703 17.1897L10.6234 16.8428C10.581 16.8485 10.5382 16.854 10.4936 16.8596L10.5376 17.2068ZM10.2172 17.2527L10.2777 17.5974C10.3744 17.5804 10.4733 17.5678 10.5816 17.5541L10.5376 17.2068L10.4936 16.8596C10.3881 16.873 10.2725 16.8876 10.1566 16.9079L10.2172 17.2527ZM9.6258 17.3685L9.69986 17.7106C9.89248 17.6689 10.0851 17.6311 10.2776 17.5974L10.2172 17.2527L10.1567 16.9079C9.95502 16.9433 9.75335 16.9828 9.55174 17.0264L9.6258 17.3685ZM8.91861 17.5514L9.01785 17.887C9.24588 17.8196 9.47252 17.7591 9.69893 17.7108L9.6258 17.3685L9.55266 17.0262C9.30355 17.0794 9.05874 17.145 8.81938 17.2157L8.91861 17.5514ZM8.23581 17.781L8.35968 18.1084C8.57605 18.0265 8.79574 17.9538 9.01946 17.8865L8.91861 17.5514L8.81777 17.2162C8.58222 17.2871 8.34671 17.3648 8.11195 17.4537L8.23581 17.781ZM7.35793 18.1529L7.50996 18.4681C7.7847 18.3356 8.06933 18.2177 8.3592 18.1085L8.23581 17.781L8.11243 17.4535C7.80891 17.5678 7.50422 17.6938 7.20589 17.8376L7.35793 18.1529ZM6.26667 18.7564L6.45446 19.0518C6.79398 18.8359 7.14523 18.6416 7.50827 18.469L7.35793 18.1529L7.20758 17.8368C6.81873 18.0218 6.44247 18.2299 6.07887 18.4611L6.26667 18.7564ZM4.76085 19.9107L4.99806 20.168C5.44944 19.752 5.9367 19.3806 6.45428 19.0519L6.26667 18.7564L6.07905 18.461C5.52773 18.811 5.00705 19.2078 4.52364 19.6533L4.76085 19.9107ZM4.73265 19.9366L4.96936 20.1944L4.99755 20.1685L4.76085 19.9107L4.52414 19.6529L4.49595 19.6788L4.73265 19.9366ZM4.18372 20.4777L4.44647 20.7089C4.60249 20.5316 4.77736 20.3706 4.96932 20.1944L4.73265 19.9366L4.49598 19.6787C4.30853 19.8508 4.10573 20.0365 3.92097 20.2464L4.18372 20.4777ZM4.02115 20.7845L4.36239 20.8623C4.37385 20.8121 4.3993 20.7621 4.44564 20.7098L4.18372 20.4777L3.9218 20.2455C3.80963 20.372 3.72129 20.5253 3.67991 20.7067L4.02115 20.7845ZM4.01237 20.9184L4.36227 20.9101C4.36199 20.8983 4.36179 20.8899 4.36174 20.882C4.36168 20.8745 4.36178 20.8695 4.36193 20.866C4.36224 20.8589 4.36267 20.8615 4.3607 20.8694L4.02115 20.7845L3.6816 20.6996C3.65726 20.797 3.66159 20.8898 3.66247 20.9268L4.01237 20.9184ZM4.01302 20.9593H4.36302C4.36302 20.9408 4.36258 20.923 4.36227 20.9101L4.01237 20.9184L3.66247 20.9268C3.66281 20.9411 3.66302 20.9505 3.66302 20.9593H4.01302ZM4.2264 21.4023L4.45716 21.1391C4.38798 21.0785 4.36375 21.0221 4.363 20.9553L4.01302 20.9593L3.66304 20.9632C3.66636 21.2582 3.80063 21.4944 3.99563 21.6654L4.2264 21.4023ZM4.77711 21.5303L4.71388 21.1861C4.58547 21.2097 4.51155 21.1866 4.45639 21.1385L4.2264 21.4023L3.9964 21.6661C4.25825 21.8944 4.57044 21.9241 4.84033 21.8746L4.77711 21.5303ZM5.1368 21.3108L4.8798 21.0732C4.80695 21.152 4.75465 21.1786 4.71407 21.186L4.77711 21.5303L4.84014 21.8746C5.08813 21.8292 5.26749 21.6851 5.39379 21.5484L5.1368 21.3108ZM5.15342 21.2915L4.88705 21.0644C4.88143 21.071 4.87683 21.0764 4.87231 21.0816L5.1368 21.3108L5.40128 21.5401C5.40799 21.5323 5.41442 21.5248 5.41978 21.5185L5.15342 21.2915ZM5.21605 21.2235L4.97788 20.967C4.938 21.004 4.90508 21.0433 4.88706 21.0644L5.15342 21.2915L5.41977 21.5185C5.44243 21.4919 5.44929 21.4845 5.45422 21.4799L5.21605 21.2235ZM5.50461 20.9471L5.26523 20.6917C5.1659 20.7849 5.06858 20.8781 4.97124 20.9733L5.21605 21.2235L5.46086 21.4736C5.55454 21.3819 5.64824 21.2922 5.74399 21.2024L5.50461 20.9471ZM5.57593 20.8808L5.33722 20.6248C5.31339 20.647 5.29021 20.6686 5.26702 20.6901L5.50461 20.9471L5.74221 21.2041C5.7667 21.1814 5.79101 21.1588 5.81464 21.1367L5.57593 20.8808ZM5.82976 20.6524L5.60521 20.3839C5.50972 20.4638 5.41951 20.5481 5.33722 20.6248L5.57593 20.8808L5.81465 21.1367C5.8993 21.0578 5.97575 20.9866 6.0543 20.9209L5.82976 20.6524ZM6.41908 20.1871L6.21457 19.903C6.00045 20.0572 5.79909 20.2227 5.60597 20.3833L5.82976 20.6524L6.05354 20.9215C6.24653 20.7611 6.43127 20.6096 6.62358 20.4711L6.41908 20.1871ZM7.66885 19.4149L7.50943 19.1033C7.05483 19.3358 6.62273 19.6058 6.21304 19.9041L6.41908 20.1871L6.62511 20.47C7.00796 20.1912 7.40903 19.9409 7.82826 19.7264L7.66885 19.4149ZM8.43903 19.0633L8.30602 18.7395C8.03636 18.8503 7.77168 18.97 7.51031 19.1028L7.66885 19.4149L7.82738 19.7269C8.06998 19.6036 8.3174 19.4916 8.57204 19.387L8.43903 19.0633ZM9.07915 18.8296L8.97225 18.4963C8.74943 18.5678 8.52444 18.6484 8.30419 18.7403L8.43903 19.0633L8.57387 19.3863C8.77223 19.3035 8.97806 19.2296 9.18605 19.1629L9.07915 18.8296ZM9.86762 18.6162L9.79198 18.2745C9.51552 18.3357 9.24068 18.4097 8.97163 18.4965L9.07915 18.8296L9.18668 19.1627C9.43379 19.0829 9.68731 19.0146 9.94327 18.9579L9.86762 18.6162ZM10.4305 18.5085L10.3748 18.163C10.1782 18.1947 9.98491 18.2325 9.79327 18.2742L9.86762 18.6162L9.94198 18.9582C10.1243 18.9186 10.3049 18.8833 10.4863 18.854L10.4305 18.5085ZM10.8654 18.4496L10.8262 18.1018C10.676 18.1187 10.5247 18.1397 10.3769 18.1626L10.4305 18.5085L10.4841 18.8544C10.6249 18.8326 10.7662 18.813 10.9046 18.7974L10.8654 18.4496ZM10.9479 18.4401L10.9074 18.0925C10.8798 18.0957 10.8532 18.0988 10.8268 18.1017L10.8654 18.4496L10.9041 18.7974C10.9327 18.7943 10.9612 18.7909 10.9885 18.7878L10.9479 18.4401ZM11.3023 18.411L11.2975 18.061C11.1578 18.0629 11.0227 18.079 10.9074 18.0925L10.9479 18.4401L10.9885 18.7878C11.1097 18.7736 11.2093 18.7623 11.3072 18.7609L11.3023 18.411ZM11.3318 18.4089L11.3134 18.0594C11.3048 18.0599 11.2871 18.0607 11.2675 18.0627L11.3023 18.411L11.3371 18.7592C11.3371 18.7592 11.3378 18.7592 11.3399 18.759C11.3423 18.7589 11.345 18.7587 11.3502 18.7585L11.3318 18.4089ZM11.3612 18.4069L11.3264 18.0586C11.3265 18.0586 11.3258 18.0587 11.3236 18.0588C11.3212 18.059 11.3185 18.0592 11.3134 18.0594L11.3318 18.4089L11.3502 18.7585C11.3588 18.758 11.3765 18.7571 11.3961 18.7552L11.3612 18.4069ZM11.8673 18.3805L11.8588 18.0306C11.6883 18.0347 11.5093 18.041 11.3277 18.0585L11.3612 18.4069L11.3948 18.7553C11.5505 18.7403 11.7089 18.7344 11.8757 18.7304L11.8673 18.3805ZM12.422 18.3947L12.4489 18.0457C12.2512 18.0305 12.0547 18.0263 11.8596 18.0306L11.8673 18.3805L11.8749 18.7304C12.0496 18.7266 12.223 18.7304 12.3952 18.7437L12.422 18.3947ZM12.5869 18.4046L12.6055 18.0551C12.5501 18.0521 12.4987 18.0494 12.4476 18.0456L12.422 18.3947L12.3965 18.7438C12.4557 18.7481 12.5141 18.7512 12.5683 18.7541L12.5869 18.4046ZM12.9179 18.4313L12.965 18.0845C12.8383 18.0673 12.7139 18.0608 12.6055 18.0551L12.5869 18.4046L12.5683 18.7541C12.6814 18.7601 12.7772 18.7654 12.8708 18.7781L12.9179 18.4313ZM13.0502 18.4437L13.0773 18.0948C13.0313 18.0912 12.9957 18.0884 12.9622 18.0841L12.9179 18.4313L12.8736 18.7785C12.9271 18.7853 12.9802 18.7894 13.0231 18.7927L13.0502 18.4437ZM13.2085 18.4597L13.26 18.1136C13.1938 18.1037 13.1282 18.0988 13.0773 18.0948L13.0502 18.4437L13.0231 18.7927C13.0784 18.797 13.1192 18.8003 13.1569 18.8059L13.2085 18.4597ZM13.4683 18.5017L13.5272 18.1567C13.4418 18.1421 13.3507 18.1265 13.258 18.1133L13.2085 18.4597L13.159 18.8062C13.2407 18.8179 13.3225 18.8318 13.4095 18.8467L13.4683 18.5017ZM13.6312 18.5288L13.6863 18.1832C13.6342 18.1749 13.5819 18.166 13.5272 18.1567L13.4683 18.5017L13.4095 18.8467C13.4635 18.8559 13.5196 18.8655 13.5761 18.8745L13.6312 18.5288ZM14.5619 18.7361L14.6577 18.3995C14.3395 18.3089 14.0164 18.2343 13.6847 18.183L13.6312 18.5288L13.5776 18.8747C13.8759 18.9209 14.1705 18.9886 14.466 19.0727L14.5619 18.7361ZM15.8685 19.2137L16.0139 18.8953C15.5742 18.6945 15.1204 18.5299 14.6568 18.3992L14.5619 18.7361L14.4669 19.073C14.8975 19.1943 15.3175 19.3468 15.7231 19.532L15.8685 19.2137ZM16.9232 19.7806L17.1095 19.4843C16.7555 19.2617 16.3883 19.0677 16.015 18.8958L15.8685 19.2137L15.7221 19.5316C16.0723 19.6929 16.4123 19.8728 16.7369 20.0769L16.9232 19.7806ZM17.5044 20.1728L17.711 19.8903C17.5148 19.7468 17.3145 19.6119 17.1082 19.4835L16.9232 19.7806L16.7383 20.0778C16.9303 20.1973 17.1161 20.3225 17.2978 20.4554L17.5044 20.1728ZM18.1425 20.6849L18.3739 20.4223C18.1612 20.2349 17.9412 20.0571 17.7098 19.8894L17.5044 20.1728L17.299 20.4562C17.5107 20.6096 17.7134 20.7733 17.9111 20.9475L18.1425 20.6849ZM18.2672 20.7993L18.5055 20.5429C18.4645 20.5048 18.4204 20.4638 18.3754 20.4237L18.1425 20.6849L17.9096 20.9462C17.9482 20.9806 17.9869 21.0166 18.029 21.0556L18.2672 20.7993ZM18.4229 20.941L18.653 20.6772C18.6051 20.6354 18.5576 20.5913 18.5055 20.5429L18.2672 20.7993L18.029 21.0556C18.0796 21.1027 18.1352 21.1544 18.1929 21.2047L18.4229 20.941ZM18.7603 21.2783L19.0187 21.0422C18.9055 20.9184 18.7854 20.7958 18.6566 20.6804L18.4229 20.941L18.1893 21.2016C18.2963 21.2975 18.3997 21.4026 18.5019 21.5144L18.7603 21.2783ZM18.9025 21.4104L19.1018 21.1227C19.0845 21.1107 19.0629 21.0905 19.0183 21.0418L18.7603 21.2783L18.5023 21.5148C18.547 21.5636 18.6149 21.637 18.7033 21.6982L18.9025 21.4104ZM19.4573 21.5201L19.3781 21.1792C19.2794 21.2022 19.1942 21.1862 19.1007 21.1219L18.9025 21.4104L18.7044 21.6989C18.9482 21.8663 19.2329 21.9316 19.5365 21.8611L19.4573 21.5201ZM19.7987 21.3047L19.5388 21.0703C19.4763 21.1397 19.4275 21.1678 19.3782 21.1792L19.4573 21.5201L19.5364 21.8611C19.7676 21.8075 19.9342 21.6771 20.0586 21.5392L19.7987 21.3047ZM19.9369 20.7236L19.5955 20.8008C19.6234 20.924 19.601 21.0015 19.5389 21.0703L19.7987 21.3047L20.0585 21.5392C20.2972 21.2748 20.3479 20.9539 20.2783 20.6463L19.9369 20.7236ZM19.7743 20.4512L19.5268 20.6987C19.5768 20.7487 19.5908 20.78 19.5955 20.8008L19.9369 20.7236L20.2783 20.6463C20.2342 20.4517 20.1263 20.3082 20.0218 20.2038L19.7743 20.4512ZM19.6682 20.3447L19.42 20.5914C19.4553 20.627 19.491 20.6629 19.5268 20.6987L19.7743 20.4512L20.0218 20.2038C19.9868 20.1688 19.9518 20.1336 19.9164 20.0979L19.6682 20.3447ZM19.0936 19.7969L18.866 20.0628C19.055 20.2246 19.2323 20.4027 19.42 20.5914L19.6682 20.3447L19.9164 20.0979C19.732 19.9125 19.5351 19.7141 19.3211 19.531L19.0936 19.7969ZM18.6912 19.4575L18.476 19.7336C18.6049 19.834 18.7294 19.9431 18.8628 20.06L19.0936 19.7969L19.3243 19.5337C19.1935 19.419 19.0539 19.2964 18.9063 19.1815L18.6912 19.4575ZM18.1852 19.0775L17.9795 19.3607C18.1492 19.4839 18.3153 19.6066 18.4742 19.7321L18.6912 19.4575L18.9082 19.1829C18.7379 19.0484 18.5626 18.919 18.3908 18.7943L18.1852 19.0775ZM16.8785 18.285L16.7198 18.5969C17.1598 18.8208 17.5816 19.076 17.9815 19.3621L18.1852 19.0775L18.3889 18.7929C17.9596 18.4857 17.5076 18.2124 17.0373 17.9731L16.8785 18.285ZM16.1551 17.9476L16.0191 18.2702C16.2578 18.3707 16.4912 18.4787 16.7177 18.5959L16.8785 18.285L17.0393 17.9741C16.7944 17.8474 16.5442 17.7318 16.291 17.6251L16.1551 17.9476ZM14.7183 17.4599L14.6302 17.7986C15.1054 17.9223 15.567 18.0795 16.0191 18.2701L16.1551 17.9476L16.2911 17.6252C15.8084 17.4216 15.3149 17.2536 14.8065 17.1212L14.7183 17.4599ZM14.0254 17.3035L13.9654 17.6483C14.1852 17.6865 14.4041 17.7386 14.6285 17.7982L14.7183 17.4599L14.8082 17.1216C14.5733 17.0593 14.3329 17.0017 14.0854 16.9586L14.0254 17.3035ZM13.9264 17.285L13.8615 17.6289C13.8943 17.6351 13.9281 17.6415 13.9623 17.6477L14.0254 17.3035L14.0885 16.9592C14.0564 16.9533 14.0244 16.9473 13.9913 16.941L13.9264 17.285ZM13.6616 17.2384L13.6097 17.5846C13.6909 17.5967 13.7722 17.612 13.8615 17.6289L13.9264 17.285L13.9913 16.941C13.9042 16.9246 13.81 16.9068 13.7136 16.8923L13.6616 17.2384ZM13.5669 17.2252L13.5246 17.5726C13.5581 17.5767 13.5804 17.5795 13.6008 17.5831L13.6616 17.2384L13.7225 16.8938C13.6805 16.8863 13.6395 16.8814 13.6092 16.8778L13.5669 17.2252ZM13.4503 17.2079L13.3817 17.5511C13.4359 17.562 13.4881 17.5682 13.5246 17.5726L13.5669 17.2252L13.6092 16.8778C13.5685 16.8728 13.5427 16.8695 13.5189 16.8647L13.4503 17.2079ZM13.1516 17.1693L13.1302 17.5187C13.2118 17.5237 13.2986 17.5356 13.3858 17.5519L13.4503 17.2079L13.5148 16.8639C13.4069 16.8437 13.2905 16.8272 13.173 16.82L13.1516 17.1693ZM12.7919 17.1389L12.7565 17.4871C12.8803 17.4996 13.0041 17.5101 13.1279 17.5185L13.1516 17.1693L13.1752 16.8201C13.0593 16.8123 12.9433 16.8024 12.8273 16.7906L12.7919 17.1389ZM12.5643 17.1253L12.5506 17.4751C12.6282 17.4781 12.6935 17.4808 12.7571 17.4871L12.7919 17.1389L12.8267 16.7906C12.7385 16.7818 12.6521 16.7785 12.5779 16.7756L12.5643 17.1253Z" fill="#020814"/>
</g>
<defs>
<clipPath id="clip0_1976_7455">
<rect width="24" height="24" fill="white"/>
</clipPath>
</defs>
</svg>
