<svg width="192" height="287" viewBox="0 0 192 287" fill="none" xmlns="http://www.w3.org/2000/svg">
<g>
<rect width="192" height="287" fill="#F4FEFF"></rect>
<path d="M 331.735 -197.431 C 366.097 -226.842 396.317 -191.622 430.68 -221.033 L 362.094 -301.163 C 356.593 -307.58 -331.751 280.237 -325.58 287.436 L -256.994 367.566 C -222.632 338.154 -252.767 302.86 -218.404 273.449 C -184.042 244.037 -153.822 279.257 -119.46 249.846 C -85.097 220.434 -115.232 185.14 -80.87 155.729 C -46.507 126.317 -16.287 161.538 18.075 132.126 C 52.438 102.715 22.303 67.421 56.665 38.009 C 91.027 8.597 121.248 43.818 155.61 14.406 C 189.972 -15.005 159.838 -50.299 194.2 -79.711 C 228.562 -109.122 258.783 -73.902 293.145 -103.313 C 327.507 -132.725 297.373 -168.019 331.735 -197.431 Z" fill="#C6E3FF" fill-opacity="0.5"></path>
<circle cx="201.807" cy="297" r="95.8069" fill="#FF9FEA"></circle>
</g>
<defs></defs>
</svg>
